<mxfile host="app.diagrams.net" agent="Mozilla/5.0 (X11; Linux x86_64; rv:132.0) Gecko/20100101 Firefox/132.0" version="24.9.3">
  <diagram name="Page-1" id="5f0bae14-7c28-e335-631c-24af17079c00">
    <mxGraphModel dx="1436" dy="752" grid="1" gridSize="10" guides="1" tooltips="1" connect="1" arrows="1" fold="1" page="1" pageScale="1" pageWidth="1100" pageHeight="850" background="none" math="0" shadow="0">
      <root>
        <mxCell id="0" />
        <mxCell id="1" parent="0" />
        <mxCell id="39150e848f15840c-1" value="Users" style="verticalAlign=top;align=left;spacingTop=8;spacingLeft=2;spacingRight=12;shape=cube;size=10;direction=south;fontStyle=4;html=1;rounded=0;shadow=0;comic=0;labelBackgroundColor=none;strokeWidth=1;fontFamily=Verdana;fontSize=12" parent="1" vertex="1">
          <mxGeometry x="100" y="112.5" width="290" height="220" as="geometry" />
        </mxCell>
        <mxCell id="ioRFcMX2OZ8lv-8FvP3L-35" value="" style="rounded=0;orthogonalLoop=1;jettySize=auto;html=1;endArrow=halfCircle;endFill=0;endSize=6;strokeWidth=1;sketch=0;exitX=0.231;exitY=-0.006;exitDx=0;exitDy=0;exitPerimeter=0;" edge="1" parent="1" source="39150e848f15840c-1">
          <mxGeometry relative="1" as="geometry">
            <mxPoint x="420" y="220" as="sourcePoint" />
            <mxPoint x="570" y="140" as="targetPoint" />
          </mxGeometry>
        </mxCell>
        <mxCell id="ioRFcMX2OZ8lv-8FvP3L-36" value="" style="rounded=0;orthogonalLoop=1;jettySize=auto;html=1;endArrow=oval;endFill=0;sketch=0;sourcePerimeterSpacing=0;targetPerimeterSpacing=0;endSize=10;exitX=0;exitY=0.5;exitDx=0;exitDy=0;" edge="1" parent="1" source="ioRFcMX2OZ8lv-8FvP3L-53">
          <mxGeometry relative="1" as="geometry">
            <mxPoint x="705.3600000000001" y="112.70999999999992" as="sourcePoint" />
            <mxPoint x="570" y="140" as="targetPoint" />
          </mxGeometry>
        </mxCell>
        <mxCell id="ioRFcMX2OZ8lv-8FvP3L-40" value="Internship Management" style="text;html=1;align=center;verticalAlign=middle;whiteSpace=wrap;rounded=0;" vertex="1" parent="1">
          <mxGeometry x="505" y="96.25" width="90" height="32.5" as="geometry" />
        </mxCell>
        <mxCell id="ioRFcMX2OZ8lv-8FvP3L-45" value="" style="ellipse;whiteSpace=wrap;html=1;align=center;aspect=fixed;fillColor=none;strokeColor=none;resizable=0;perimeter=centerPerimeter;rotatable=0;allowArrows=0;points=[];outlineConnect=1;" vertex="1" parent="1">
          <mxGeometry x="513" y="511" width="10" height="10" as="geometry" />
        </mxCell>
        <mxCell id="ioRFcMX2OZ8lv-8FvP3L-46" value="" style="rounded=0;orthogonalLoop=1;jettySize=auto;html=1;endArrow=halfCircle;endFill=0;endSize=6;strokeWidth=1;sketch=0;exitX=0;exitY=0;exitDx=210;exitDy=0;exitPerimeter=0;" edge="1" parent="1" source="39150e848f15840c-1">
          <mxGeometry relative="1" as="geometry">
            <mxPoint x="378" y="498" as="sourcePoint" />
            <mxPoint x="580" y="400" as="targetPoint" />
          </mxGeometry>
        </mxCell>
        <mxCell id="ioRFcMX2OZ8lv-8FvP3L-47" value="" style="rounded=0;orthogonalLoop=1;jettySize=auto;html=1;endArrow=oval;endFill=0;sketch=0;sourcePerimeterSpacing=0;targetPerimeterSpacing=0;endSize=10;exitX=0;exitY=0.5;exitDx=0;exitDy=0;" edge="1" parent="1" source="ioRFcMX2OZ8lv-8FvP3L-55">
          <mxGeometry relative="1" as="geometry">
            <mxPoint x="731.56" y="458.18499999999995" as="sourcePoint" />
            <mxPoint x="580" y="400" as="targetPoint" />
          </mxGeometry>
        </mxCell>
        <mxCell id="ioRFcMX2OZ8lv-8FvP3L-48" value="&lt;div&gt;Account&lt;/div&gt;&lt;div&gt;Management&lt;/div&gt;" style="text;html=1;align=center;verticalAlign=middle;whiteSpace=wrap;rounded=0;" vertex="1" parent="1">
          <mxGeometry x="560" y="350" width="90" height="32.5" as="geometry" />
        </mxCell>
        <mxCell id="ioRFcMX2OZ8lv-8FvP3L-53" value="&lt;div&gt;&lt;font style=&quot;font-size: 18px;&quot;&gt;Internship&lt;/font&gt;&lt;/div&gt;&lt;div&gt;&lt;font style=&quot;font-size: 18px;&quot;&gt;Management&lt;br&gt;&lt;/font&gt;&lt;/div&gt;" style="html=1;dropTarget=0;whiteSpace=wrap;" vertex="1" parent="1">
          <mxGeometry x="750" y="70" width="180" height="90" as="geometry" />
        </mxCell>
        <mxCell id="ioRFcMX2OZ8lv-8FvP3L-54" value="" style="shape=module;jettyWidth=8;jettyHeight=4;" vertex="1" parent="ioRFcMX2OZ8lv-8FvP3L-53">
          <mxGeometry x="1" width="20" height="20" relative="1" as="geometry">
            <mxPoint x="-27" y="7" as="offset" />
          </mxGeometry>
        </mxCell>
        <mxCell id="ioRFcMX2OZ8lv-8FvP3L-55" value="&lt;div&gt;&lt;font style=&quot;font-size: 18px;&quot;&gt;Account&lt;/font&gt;&lt;/div&gt;&lt;div&gt;&lt;font style=&quot;font-size: 18px;&quot;&gt;Management&lt;br&gt;&lt;/font&gt;&lt;/div&gt;" style="html=1;dropTarget=0;whiteSpace=wrap;" vertex="1" parent="1">
          <mxGeometry x="740" y="421" width="180" height="90" as="geometry" />
        </mxCell>
        <mxCell id="ioRFcMX2OZ8lv-8FvP3L-56" value="" style="shape=module;jettyWidth=8;jettyHeight=4;" vertex="1" parent="ioRFcMX2OZ8lv-8FvP3L-55">
          <mxGeometry x="1" width="20" height="20" relative="1" as="geometry">
            <mxPoint x="-27" y="7" as="offset" />
          </mxGeometry>
        </mxCell>
        <mxCell id="ioRFcMX2OZ8lv-8FvP3L-57" value="&lt;div align=&quot;center&quot;&gt;Web-browser&lt;/div&gt;" style="html=1;dropTarget=0;whiteSpace=wrap;" vertex="1" parent="1">
          <mxGeometry x="177.5" y="160" width="135" height="59" as="geometry" />
        </mxCell>
        <mxCell id="ioRFcMX2OZ8lv-8FvP3L-58" value="" style="shape=module;jettyWidth=8;jettyHeight=4;" vertex="1" parent="ioRFcMX2OZ8lv-8FvP3L-57">
          <mxGeometry x="1" width="20" height="20" relative="1" as="geometry">
            <mxPoint x="-27" y="7" as="offset" />
          </mxGeometry>
        </mxCell>
        <mxCell id="ioRFcMX2OZ8lv-8FvP3L-61" value="&lt;div align=&quot;center&quot;&gt;Mobile Device&lt;/div&gt;" style="html=1;dropTarget=0;whiteSpace=wrap;" vertex="1" parent="1">
          <mxGeometry x="177.5" y="250" width="135" height="59" as="geometry" />
        </mxCell>
        <mxCell id="ioRFcMX2OZ8lv-8FvP3L-62" value="" style="shape=module;jettyWidth=8;jettyHeight=4;" vertex="1" parent="ioRFcMX2OZ8lv-8FvP3L-61">
          <mxGeometry x="1" width="20" height="20" relative="1" as="geometry">
            <mxPoint x="-27" y="7" as="offset" />
          </mxGeometry>
        </mxCell>
      </root>
    </mxGraphModel>
  </diagram>
</mxfile>
